<?xml version="1.0" encoding="UTF-8"?>
<svg xmlns="http://www.w3.org/2000/svg" xmlns:xlink="http://www.w3.org/1999/xlink" width="1008pt" height="1079.999946pt" viewBox="0 0 1008 1079.999946" version="1.2">
<defs>
<clipPath id="clip1">
  <path d="M 0.421875 37.269531 L 1007 37.269531 L 1007 1043.011719 L 0.421875 1043.011719 Z M 0.421875 37.269531 "/>
</clipPath>
<clipPath id="clip2">
  <path d="M 977.566406 388.789062 C 986.496094 429 977.878906 436.03125 957.046875 453.007812 C 948.550781 459.933594 938.917969 467.785156 928.5625 479.179688 L 922.070312 486.296875 C 888.796875 522.707031 862.515625 551.460938 850.539062 620.960938 C 839.363281 685.816406 765.199219 762.296875 754.355469 769.902344 C 751.011719 771.75 737.273438 773.03125 727.238281 773.960938 C 704.898438 776.03125 679.578125 778.378906 663.648438 789.28125 C 603.515625 830.445312 593.300781 847.675781 596.855469 861.8125 C 596.9375 868.332031 585.585938 889.894531 579.460938 901.535156 C 574.070312 911.777344 569.410156 920.625 567.042969 927.253906 C 564.820312 933.496094 548.972656 947.058594 539.511719 955.175781 C 524.144531 968.328125 516.671875 975.003906 514.742188 982.75 C 514.078125 984.761719 511.210938 988.246094 508.394531 990.878906 C 502.15625 980.453125 490.785156 970.070312 478.046875 958.414062 C 475.09375 955.714844 472.058594 952.941406 469.015625 950.105469 C 458.683594 940.453125 446.121094 936.269531 437.164062 933.566406 C 444.183594 926.75 455.203125 917.023438 464.015625 909.261719 C 488.082031 888.035156 503.09375 874.5 508.613281 865.53125 C 512.621094 859.011719 513.71875 852.761719 511.882812 846.9375 C 509.039062 837.9375 500.738281 834.359375 494.667969 831.75 C 492.789062 830.9375 489.761719 829.632812 488.664062 828.875 C 489.089844 827.285156 490.648438 824.183594 491.722656 822.039062 C 495.050781 815.417969 499.605469 806.359375 499.605469 794.828125 C 499.605469 786.621094 496.988281 780.457031 491.816406 776.507812 C 484.613281 771.003906 476.132812 772.445312 469.339844 774.210938 C 469.710938 772.074219 470.121094 769.921875 470.457031 768.203125 C 472.886719 755.675781 474.792969 745.785156 469.046875 738.59375 C 463.816406 732.050781 454.382812 730.222656 436.769531 727.28125 C 431.21875 726.351562 422.40625 724.886719 418.457031 723.570312 C 416.445312 717.34375 415.890625 700.15625 415.613281 691.546875 C 415.429688 686.027344 415.277344 681.273438 414.910156 677.335938 C 415.171875 676.628906 416.90625 674.601562 418.171875 673.121094 C 423.5625 666.816406 431.707031 657.28125 436.429688 636.816406 C 438.5 627.832031 439.75 618.554688 434.941406 611.542969 C 430.558594 605.164062 423.910156 604.226562 420.335938 603.722656 C 419.496094 603.605469 418.238281 603.429688 417.980469 603.335938 C 417.972656 603.328125 416.871094 602.265625 415.796875 598.15625 C 408.050781 568.441406 389.578125 569.347656 377.332031 569.964844 C 373.34375 570.167969 369.558594 570.351562 365.769531 569.765625 C 365.738281 567.308594 366.199219 563.238281 366.550781 560.0625 C 367.730469 549.570312 369.332031 535.195312 365.023438 518.835938 C 362.324219 508.597656 358.675781 498.5 350.273438 493.957031 C 342.566406 489.78125 335.269531 492.214844 329.9375 493.996094 C 325.769531 495.382812 322.15625 496.570312 317.460938 495.792969 C 300.191406 492.910156 259.964844 465.042969 247.597656 454.050781 C 246.710938 453.269531 246.84375 450.019531 247.136719 445.148438 C 247.632812 436.917969 248.308594 425.640625 242.03125 413.085938 C 238.984375 406.984375 233.585938 402.851562 226.828125 401.429688 C 204.042969 396.683594 166.113281 426.417969 155.042969 435.652344 C 151.589844 438.535156 142.40625 441.144531 130.390625 440.039062 L 127.515625 439.792969 C 114.191406 438.671875 109.21875 437.5625 105.761719 429.476562 C 96.664062 408.257812 83.085938 410.8125 73.652344 414.578125 C 72.109375 415.191406 70.660156 415.777344 69.671875 415.902344 C 66.398438 416.3125 65.972656 416.363281 53.492188 407.351562 L 48.328125 403.632812 C 36.445312 395.144531 33.953125 388.3125 28.488281 373.347656 C 27.773438 371.375 27.019531 369.304688 26.199219 367.128906 C 25.214844 364.496094 24.949219 363.785156 32.589844 356.410156 C 38.652344 350.566406 46.191406 343.300781 48.519531 331.6875 C 51.875 314.875 62.375 295.222656 93.460938 297.035156 C 97.375 297.277344 100.964844 295.6875 103.429688 293.019531 C 104.554688 292.726562 105.667969 292.265625 106.710938 291.636719 C 118.074219 284.808594 139.414062 244.65625 139.414062 220.378906 C 139.414062 208.816406 134.683594 196.421875 129.679688 183.296875 C 124.386719 169.417969 118.390625 153.6875 120.90625 143.613281 C 122.179688 138.511719 125.140625 137.078125 143.53125 136.675781 C 152.320312 136.484375 162.265625 136.273438 171.503906 133.28125 C 172.226562 134.507812 173.097656 136.257812 173.789062 137.65625 C 178.878906 147.871094 187.398438 164.945312 213.820312 167.59375 C 237.550781 169.972656 259.210938 161.246094 270.355469 144.824219 C 280.570312 129.777344 280.789062 110.246094 270.960938 91.238281 C 269.644531 88.683594 268.277344 86.285156 266.902344 84.054688 C 268.914062 84.425781 271.035156 84.8125 273.277344 85.214844 C 311.3125 92.066406 325.507812 82.984375 338.917969 71.34375 C 345.308594 65.789062 349.167969 62.441406 360.117188 62.441406 C 362.691406 62.441406 363.730469 62.921875 363.917969 63.105469 C 366.273438 65.484375 366.179688 77.359375 366.113281 85.214844 C 365.953125 105.308594 365.738281 132.828125 389.394531 148.609375 C 414.140625 165.117188 433.285156 153.101562 448.671875 143.449219 C 463.355469 134.238281 477.234375 125.53125 500.445312 131.035156 C 542.925781 141.078125 555.421875 127.273438 568.445312 106.65625 C 573.097656 99.285156 577.910156 91.683594 586.429688 85.035156 C 586.574219 86.988281 586.683594 89 586.777344 90.683594 C 587.679688 106.699219 588.90625 128.632812 607.320312 137.40625 C 618.742188 142.84375 618.742188 142.84375 616.820312 154.796875 C 616.125 159.109375 615.261719 164.472656 614.707031 170.910156 C 612.257812 199.066406 644.4375 205.78125 670.296875 211.175781 C 684.46875 214.128906 699.128906 217.1875 707.511719 222.53125 C 712.59375 225.761719 717.660156 229.296875 723.019531 233.035156 C 745.382812 248.636719 770.726562 266.3125 810.523438 271.550781 C 853.097656 277.15625 880.671875 292.535156 908.871094 326.390625 C 923.546875 344.007812 938.449219 348.179688 949.339844 351.214844 C 963.007812 355.042969 970.539062 357.140625 977.566406 388.789062 Z M 1002.121094 383.328125 C 992.585938 340.371094 976.34375 332.632812 956.101562 326.976562 C 946.3125 324.238281 937.859375 321.875 928.199219 310.277344 C 895.890625 271.492188 862.75 253.039062 813.808594 246.59375 C 780.089844 242.160156 758.390625 227.023438 737.410156 212.386719 C 732.066406 208.664062 726.546875 204.816406 721.015625 201.289062 C 708.761719 193.488281 691.816406 189.957031 675.429688 186.539062 C 664.878906 184.328125 648.832031 180.96875 642.5 176.800781 C 643.253906 170.484375 643.253906 164.910156 641.5 159.773438 C 641.550781 159.453125 641.609375 159.109375 641.652344 158.792969 C 644.710938 139.769531 644.660156 127.316406 618.136719 114.679688 C 613.191406 112.324219 612.410156 98.453125 611.898438 89.277344 C 611.175781 76.355469 610.429688 62.988281 599.179688 57.714844 C 588.03125 52.480469 576.828125 60.792969 572.605469 63.925781 C 559.582031 73.582031 552.710938 84.464844 547.179688 93.207031 C 537.972656 107.78125 534.53125 113.238281 506.238281 106.542969 C 472.78125 98.621094 451.121094 112.207031 435.3125 122.121094 C 419.890625 131.800781 414.019531 134.78125 403.347656 127.667969 C 391.859375 120 391.109375 105.960938 391.269531 85.421875 C 391.398438 69.875 391.511719 55.195312 381.777344 45.378906 C 376.4375 40 369.148438 37.269531 360.117188 37.269531 C 339.773438 37.269531 330.15625 45.617188 322.425781 52.335938 C 313.8125 59.8125 307.019531 65.71875 277.734375 60.441406 C 269.308594 58.925781 262.589844 57.625 257.308594 56.601562 C 239.539062 53.15625 232.183594 51.726562 227.136719 60.742188 C 222.652344 68.753906 227.800781 75.367188 231.675781 79.671875 C 229.921875 80.753906 228.445312 82.363281 227.136719 84.703125 C 222.273438 93.398438 228.765625 100.480469 232.648438 104.714844 C 236.824219 109.265625 243.128906 116.144531 248.613281 126.761719 C 249.109375 127.710938 249.59375 128.714844 250.046875 129.761719 C 249.855469 130.066406 249.746094 130.382812 249.542969 130.683594 C 243.589844 139.457031 230.851562 144 216.320312 142.542969 C 203.714844 141.285156 200.605469 135.050781 196.304688 126.425781 C 192.429688 118.648438 184.378906 102.441406 163.957031 109.265625 C 158.207031 111.183594 150.472656 111.351562 142.988281 111.511719 C 126.976562 111.855469 102.777344 112.382812 96.503906 137.5 C 94.566406 145.234375 94.976562 153.335938 96.511719 161.441406 C 96.503906 161.449219 96.503906 161.457031 96.503906 161.464844 C 92.066406 179.230469 99.558594 198.890625 106.179688 216.230469 C 108.34375 221.921875 110.53125 227.6875 112.085938 232.898438 C 107.558594 248.394531 97.117188 266.480469 93.03125 270.535156 C 92.488281 270.914062 91.984375 271.324219 91.523438 271.765625 C 39.230469 270.6875 26.527344 313.351562 23.84375 326.75 C 23.070312 330.640625 19.390625 334.183594 15.136719 338.289062 C 7.824219 345.339844 -4.410156 357.136719 2.644531 375.96875 C 2.835938 376.464844 2.988281 376.914062 3.171875 377.402344 C 0.34375 383.460938 -0.746094 390.871094 2.644531 399.929688 C 3.4375 402.03125 4.160156 404.027344 4.863281 405.9375 C 10.792969 422.203125 15.480469 435.058594 33.703125 448.074219 L 38.769531 451.726562 C 52.421875 461.582031 59.273438 466.558594 72.796875 464.835938 C 76.539062 464.367188 79.707031 463.214844 82.140625 462.246094 C 82.296875 462.582031 82.464844 462.949219 82.640625 463.351562 C 92.359375 486.054688 112.246094 487.730469 125.410156 488.835938 L 128.109375 489.070312 C 145.570312 490.664062 161.644531 486.867188 171.144531 478.953125 C 189.292969 463.820312 212.078125 450.496094 220.292969 449.976562 C 222.726562 455.851562 222.398438 461.339844 222.023438 467.601562 C 221.507812 476.148438 220.804688 487.863281 230.886719 496.824219 C 240.46875 505.351562 287.179688 540.222656 313.324219 544.582031 C 324.195312 546.398438 332.429688 543.652344 337.878906 541.839844 C 338.023438 541.789062 338.164062 541.742188 338.316406 541.691406 C 338.933594 543.230469 339.75 545.605469 340.695312 549.214844 C 341.183594 551.070312 341.542969 552.894531 341.835938 554.703125 C 341.738281 555.566406 341.644531 556.429688 341.550781 557.269531 C 340.878906 563.269531 340.007812 571.246094 341.871094 578.335938 C 341.761719 579.308594 341.660156 580.28125 341.550781 581.230469 C 340.175781 593.53125 337.871094 614.121094 360.210938 618.3125 C 367.230469 619.628906 373.519531 619.324219 378.582031 619.066406 C 388.871094 618.554688 388.871094 618.554688 391.457031 628.46875 C 394.425781 639.882812 399.78125 645.734375 405.023438 648.859375 C 403.042969 652.035156 400.996094 654.488281 399.050781 656.761719 C 394.515625 662.066406 388.878906 668.667969 389.894531 679.875 C 390.15625 682.824219 390.3125 687.457031 390.472656 692.359375 C 390.5 693.316406 390.539062 694.164062 390.566406 695.09375 C 389.914062 697.675781 389.59375 700.539062 389.894531 703.832031 C 390.15625 706.785156 390.3125 711.417969 390.472656 716.320312 C 391.320312 742.644531 392.496094 759.175781 401.617188 766.785156 C 407.496094 771.679688 417.226562 773.507812 432.636719 776.070312 C 435.707031 776.582031 439.808594 777.269531 443.453125 777.992188 C 443.027344 783.019531 443.289062 787.585938 444.972656 791.519531 C 442.933594 802.445312 441.804688 811.890625 446.835938 818.835938 C 449.425781 822.414062 453.273438 824.6875 457.667969 825.238281 C 459.742188 825.492188 461.800781 825.390625 463.816406 825.15625 C 462.960938 830.042969 463.304688 835.332031 466.347656 840.820312 C 463.414062 847.734375 461.476562 856.019531 466.363281 864.8125 C 467.453125 866.78125 468.761719 868.464844 470.199219 869.933594 C 462.910156 876.671875 454.539062 884.0625 447.378906 890.378906 C 421.214844 913.445312 411.027344 922.84375 407.847656 930.003906 C 405.726562 934.777344 405.667969 939.816406 407.683594 944.191406 C 408.539062 946.058594 409.667969 947.601562 410.96875 948.925781 C 409.558594 950.785156 408.527344 952.429688 407.847656 953.96875 C 405.726562 958.738281 405.667969 963.777344 407.683594 968.148438 C 411.335938 976.09375 419.488281 978.523438 428.117188 981.097656 C 436.082031 983.46875 445.097656 986.160156 451.855469 992.476562 C 454.960938 995.371094 458.0625 998.203125 461.082031 1000.96875 C 472.773438 1011.652344 486.027344 1023.769531 488.152344 1030.574219 C 490.617188 1038.429688 496.996094 1043.246094 504.863281 1043.246094 C 505.054688 1043.246094 505.242188 1043.246094 505.441406 1043.238281 C 519.488281 1042.828125 535.160156 1025.738281 538.792969 1014.066406 C 540.980469 1011 549.542969 1003.664062 555.867188 998.253906 C 573.660156 983.015625 586.582031 971.324219 590.734375 959.6875 C 592.496094 954.742188 596.980469 946.226562 601.71875 937.21875 C 615.503906 911.039062 623.882812 893.847656 621.636719 881.347656 C 623.136719 878.027344 631.488281 865.757812 677.851562 834.015625 C 688.394531 826.800781 711.21875 824.679688 729.558594 822.984375 C 749.484375 821.140625 761.125 819.835938 768.613281 814.589844 C 781.8125 805.351562 862.457031 723.871094 875.328125 649.195312 C 886.054688 586.96875 907.765625 563.210938 940.628906 527.257812 L 947.175781 520.070312 C 956.269531 510.070312 965.125 502.855469 972.9375 496.480469 C 995.355469 478.210938 1009.75 464.046875 1005.324219 425.808594 C 1006.917969 414.804688 1006.105469 401.246094 1002.121094 383.328125 Z M 1002.121094 383.328125 "/>
</clipPath>
<clipPath id="clip3">
  <path d="M 977.566406 388.789062 C 986.496094 429 977.878906 436.03125 957.046875 453.007812 C 948.550781 459.933594 938.917969 467.785156 928.5625 479.179688 L 922.070312 486.296875 C 888.796875 522.707031 862.515625 551.460938 850.539062 620.960938 C 839.363281 685.816406 765.199219 762.296875 754.355469 769.902344 C 751.011719 771.75 737.273438 773.03125 727.238281 773.960938 C 704.898438 776.03125 679.578125 778.378906 663.648438 789.28125 C 603.515625 830.445312 593.300781 847.675781 596.855469 861.8125 C 596.9375 868.332031 585.585938 889.894531 579.460938 901.535156 C 574.070312 911.777344 569.410156 920.625 567.042969 927.253906 C 564.820312 933.496094 548.972656 947.058594 539.511719 955.175781 C 524.144531 968.328125 516.671875 975.003906 514.742188 982.75 C 514.078125 984.761719 511.210938 988.246094 508.394531 990.878906 C 502.15625 980.453125 490.785156 970.070312 478.046875 958.414062 C 475.09375 955.714844 472.058594 952.941406 469.015625 950.105469 C 458.683594 940.453125 446.121094 936.269531 437.164062 933.566406 C 444.183594 926.75 455.203125 917.023438 464.015625 909.261719 C 488.082031 888.035156 503.09375 874.5 508.613281 865.53125 C 512.621094 859.011719 513.71875 852.761719 511.882812 846.9375 C 509.039062 837.9375 500.738281 834.359375 494.667969 831.75 C 492.789062 830.9375 489.761719 829.632812 488.664062 828.875 C 489.089844 827.285156 490.648438 824.183594 491.722656 822.039062 C 495.050781 815.417969 499.605469 806.359375 499.605469 794.828125 C 499.605469 786.621094 496.988281 780.457031 491.816406 776.507812 C 484.613281 771.003906 476.132812 772.445312 469.339844 774.210938 C 469.710938 772.074219 470.121094 769.921875 470.457031 768.203125 C 472.886719 755.675781 474.792969 745.785156 469.046875 738.59375 C 463.816406 732.050781 454.382812 730.222656 436.769531 727.28125 C 431.21875 726.351562 422.40625 724.886719 418.457031 723.570312 C 416.445312 717.34375 415.890625 700.15625 415.613281 691.546875 C 415.429688 686.027344 415.277344 681.273438 414.910156 677.335938 C 415.171875 676.628906 416.90625 674.601562 418.171875 673.121094 C 423.5625 666.816406 431.707031 657.28125 436.429688 636.816406 C 438.5 627.832031 439.75 618.554688 434.941406 611.542969 C 430.558594 605.164062 423.910156 604.226562 420.335938 603.722656 C 419.496094 603.605469 418.238281 603.429688 417.980469 603.335938 C 417.972656 603.328125 416.871094 602.265625 415.796875 598.15625 C 408.050781 568.441406 389.578125 569.347656 377.332031 569.964844 C 373.34375 570.167969 369.558594 570.351562 365.769531 569.765625 C 365.738281 567.308594 366.199219 563.238281 366.550781 560.0625 C 367.730469 549.570312 369.332031 535.195312 365.023438 518.835938 C 362.324219 508.597656 358.675781 498.5 350.273438 493.957031 C 342.566406 489.78125 335.269531 492.214844 329.9375 493.996094 C 325.769531 495.382812 322.15625 496.570312 317.460938 495.792969 C 300.191406 492.910156 259.964844 465.042969 247.597656 454.050781 C 246.710938 453.269531 246.84375 450.019531 247.136719 445.148438 C 247.632812 436.917969 248.308594 425.640625 242.03125 413.085938 C 238.984375 406.984375 233.585938 402.851562 226.828125 401.429688 C 204.042969 396.683594 166.113281 426.417969 155.042969 435.652344 C 151.589844 438.535156 142.40625 441.144531 130.390625 440.039062 L 127.515625 439.792969 C 114.191406 438.671875 109.21875 437.5625 105.761719 429.476562 C 96.664062 408.257812 83.085938 410.8125 73.652344 414.578125 C 72.109375 415.191406 70.660156 415.777344 69.671875 415.902344 C 66.398438 416.3125 65.972656 416.363281 53.492188 407.351562 L 48.328125 403.632812 C 36.445312 395.144531 33.953125 388.3125 28.488281 373.347656 C 27.773438 371.375 27.019531 369.304688 26.199219 367.128906 C 25.214844 364.496094 24.949219 363.785156 32.589844 356.410156 C 38.652344 350.566406 46.191406 343.300781 48.519531 331.6875 C 51.875 314.875 62.375 295.222656 93.460938 297.035156 C 97.375 297.277344 100.964844 295.6875 103.429688 293.019531 C 104.554688 292.726562 105.667969 292.265625 106.710938 291.636719 C 118.074219 284.808594 139.414062 244.65625 139.414062 220.378906 C 139.414062 208.816406 134.683594 196.421875 129.679688 183.296875 C 124.386719 169.417969 118.390625 153.6875 120.90625 143.613281 C 122.179688 138.511719 125.140625 137.078125 143.53125 136.675781 C 152.320312 136.484375 162.265625 136.273438 171.503906 133.28125 C 172.226562 134.507812 173.097656 136.257812 173.789062 137.65625 C 178.878906 147.871094 187.398438 164.945312 213.820312 167.59375 C 237.550781 169.972656 259.210938 161.246094 270.355469 144.824219 C 280.570312 129.777344 280.789062 110.246094 270.960938 91.238281 C 269.644531 88.683594 268.277344 86.285156 266.902344 84.054688 C 268.914062 84.425781 271.035156 84.8125 273.277344 85.214844 C 311.3125 92.066406 325.507812 82.984375 338.917969 71.34375 C 345.308594 65.789062 349.167969 62.441406 360.117188 62.441406 C 362.691406 62.441406 363.730469 62.921875 363.917969 63.105469 C 366.273438 65.484375 366.179688 77.359375 366.113281 85.214844 C 365.953125 105.308594 365.738281 132.828125 389.394531 148.609375 C 414.140625 165.117188 433.285156 153.101562 448.671875 143.449219 C 463.355469 134.238281 477.234375 125.53125 500.445312 131.035156 C 542.925781 141.078125 555.421875 127.273438 568.445312 106.65625 C 573.097656 99.285156 577.910156 91.683594 586.429688 85.035156 C 586.574219 86.988281 586.683594 89 586.777344 90.683594 C 587.679688 106.699219 588.90625 128.632812 607.320312 137.40625 C 618.742188 142.84375 618.742188 142.84375 616.820312 154.796875 C 616.125 159.109375 615.261719 164.472656 614.707031 170.910156 C 612.257812 199.066406 644.4375 205.78125 670.296875 211.175781 C 684.46875 214.128906 699.128906 217.1875 707.511719 222.53125 C 712.59375 225.761719 717.660156 229.296875 723.019531 233.035156 C 745.382812 248.636719 770.726562 266.3125 810.523438 271.550781 C 853.097656 277.15625 880.671875 292.535156 908.871094 326.390625 C 923.546875 344.007812 938.449219 348.179688 949.339844 351.214844 C 963.007812 355.042969 970.539062 357.140625 977.566406 388.789062 Z M 1002.121094 383.328125 C 992.585938 340.371094 976.34375 332.632812 956.101562 326.976562 C 946.3125 324.238281 937.859375 321.875 928.199219 310.277344 C 895.890625 271.492188 862.75 253.039062 813.808594 246.59375 C 780.089844 242.160156 758.390625 227.023438 737.410156 212.386719 C 732.066406 208.664062 726.546875 204.816406 721.015625 201.289062 C 708.761719 193.488281 691.816406 189.957031 675.429688 186.539062 C 664.878906 184.328125 648.832031 180.96875 642.5 176.800781 C 643.253906 170.484375 643.253906 164.910156 641.5 159.773438 C 641.550781 159.453125 641.609375 159.109375 641.652344 158.792969 C 644.710938 139.769531 644.660156 127.316406 618.136719 114.679688 C 613.191406 112.324219 612.410156 98.453125 611.898438 89.277344 C 611.175781 76.355469 610.429688 62.988281 599.179688 57.714844 C 588.03125 52.480469 576.828125 60.792969 572.605469 63.925781 C 559.582031 73.582031 552.710938 84.464844 547.179688 93.207031 C 537.972656 107.78125 534.53125 113.238281 506.238281 106.542969 C 472.78125 98.621094 451.121094 112.207031 435.3125 122.121094 C 419.890625 131.800781 414.019531 134.78125 403.347656 127.667969 C 391.859375 120 391.109375 105.960938 391.269531 85.421875 C 391.398438 69.875 391.511719 55.195312 381.777344 45.378906 C 376.4375 40 369.148438 37.269531 360.117188 37.269531 C 339.773438 37.269531 330.15625 45.617188 322.425781 52.335938 C 313.8125 59.8125 307.019531 65.71875 277.734375 60.441406 C 269.308594 58.925781 262.589844 57.625 257.308594 56.601562 C 239.539062 53.15625 232.183594 51.726562 227.136719 60.742188 C 222.652344 68.753906 227.800781 75.367188 231.675781 79.671875 C 229.921875 80.753906 228.445312 82.363281 227.136719 84.703125 C 222.273438 93.398438 228.765625 100.480469 232.648438 104.714844 C 236.824219 109.265625 243.128906 116.144531 248.613281 126.761719 C 249.109375 127.710938 249.59375 128.714844 250.046875 129.761719 C 249.855469 130.066406 249.746094 130.382812 249.542969 130.683594 C 243.589844 139.457031 230.851562 144 216.320312 142.542969 C 203.714844 141.285156 200.605469 135.050781 196.304688 126.425781 C 192.429688 118.648438 184.378906 102.441406 163.957031 109.265625 C 158.207031 111.183594 150.472656 111.351562 142.988281 111.511719 C 126.976562 111.855469 102.777344 112.382812 96.503906 137.5 C 94.566406 145.234375 94.976562 153.335938 96.511719 161.441406 C 96.503906 161.449219 96.503906 161.457031 96.503906 161.464844 C 92.066406 179.230469 99.558594 198.890625 106.179688 216.230469 C 108.34375 221.921875 110.53125 227.6875 112.085938 232.898438 C 107.558594 248.394531 97.117188 266.480469 93.03125 270.535156 C 92.488281 270.914062 91.984375 271.324219 91.523438 271.765625 C 39.230469 270.6875 26.527344 313.351562 23.84375 326.75 C 23.070312 330.640625 19.390625 334.183594 15.136719 338.289062 C 7.824219 345.339844 -4.410156 357.136719 2.644531 375.96875 C 2.835938 376.464844 2.988281 376.914062 3.171875 377.402344 C 0.34375 383.460938 -0.746094 390.871094 2.644531 399.929688 C 3.4375 402.03125 4.160156 404.027344 4.863281 405.9375 C 10.792969 422.203125 15.480469 435.058594 33.703125 448.074219 L 38.769531 451.726562 C 52.421875 461.582031 59.273438 466.558594 72.796875 464.835938 C 76.539062 464.367188 79.707031 463.214844 82.140625 462.246094 C 82.296875 462.582031 82.464844 462.949219 82.640625 463.351562 C 92.359375 486.054688 112.246094 487.730469 125.410156 488.835938 L 128.109375 489.070312 C 145.570312 490.664062 161.644531 486.867188 171.144531 478.953125 C 189.292969 463.820312 212.078125 450.496094 220.292969 449.976562 C 222.726562 455.851562 222.398438 461.339844 222.023438 467.601562 C 221.507812 476.148438 220.804688 487.863281 230.886719 496.824219 C 240.46875 505.351562 287.179688 540.222656 313.324219 544.582031 C 324.195312 546.398438 332.429688 543.652344 337.878906 541.839844 C 338.023438 541.789062 338.164062 541.742188 338.316406 541.691406 C 338.933594 543.230469 339.75 545.605469 340.695312 549.214844 C 341.183594 551.070312 341.542969 552.894531 341.835938 554.703125 C 341.738281 555.566406 341.644531 556.429688 341.550781 557.269531 C 340.878906 563.269531 340.007812 571.246094 341.871094 578.335938 C 341.761719 579.308594 341.660156 580.28125 341.550781 581.230469 C 340.175781 593.53125 337.871094 614.121094 360.210938 618.3125 C 367.230469 619.628906 373.519531 619.324219 378.582031 619.066406 C 388.871094 618.554688 388.871094 618.554688 391.457031 628.46875 C 394.425781 639.882812 399.78125 645.734375 405.023438 648.859375 C 403.042969 652.035156 400.996094 654.488281 399.050781 656.761719 C 394.515625 662.066406 388.878906 668.667969 389.894531 679.875 C 390.15625 682.824219 390.3125 687.457031 390.472656 692.359375 C 390.5 693.316406 390.539062 694.164062 390.566406 695.09375 C 389.914062 697.675781 389.59375 700.539062 389.894531 703.832031 C 390.15625 706.785156 390.3125 711.417969 390.472656 716.320312 C 391.320312 742.644531 392.496094 759.175781 401.617188 766.785156 C 407.496094 771.679688 417.226562 773.507812 432.636719 776.070312 C 435.707031 776.582031 439.808594 777.269531 443.453125 777.992188 C 443.027344 783.019531 443.289062 787.585938 444.972656 791.519531 C 442.933594 802.445312 441.804688 811.890625 446.835938 818.835938 C 449.425781 822.414062 453.273438 824.6875 457.667969 825.238281 C 459.742188 825.492188 461.800781 825.390625 463.816406 825.15625 C 462.960938 830.042969 463.304688 835.332031 466.347656 840.820312 C 463.414062 847.734375 461.476562 856.019531 466.363281 864.8125 C 467.453125 866.78125 468.761719 868.464844 470.199219 869.933594 C 462.910156 876.671875 454.539062 884.0625 447.378906 890.378906 C 421.214844 913.445312 411.027344 922.84375 407.847656 930.003906 C 405.726562 934.777344 405.667969 939.816406 407.683594 944.191406 C 408.539062 946.058594 409.667969 947.601562 410.96875 948.925781 C 409.558594 950.785156 408.527344 952.429688 407.847656 953.96875 C 405.726562 958.738281 405.667969 963.777344 407.683594 968.148438 C 411.335938 976.09375 419.488281 978.523438 428.117188 981.097656 C 436.082031 983.46875 445.097656 986.160156 451.855469 992.476562 C 454.960938 995.371094 458.0625 998.203125 461.082031 1000.96875 C 472.773438 1011.652344 486.027344 1023.769531 488.152344 1030.574219 C 490.617188 1038.429688 496.996094 1043.246094 504.863281 1043.246094 C 505.054688 1043.246094 505.242188 1043.246094 505.441406 1043.238281 C 519.488281 1042.828125 535.160156 1025.738281 538.792969 1014.066406 C 540.980469 1011 549.542969 1003.664062 555.867188 998.253906 C 573.660156 983.015625 586.582031 971.324219 590.734375 959.6875 C 592.496094 954.742188 596.980469 946.226562 601.71875 937.21875 C 615.503906 911.039062 623.882812 893.847656 621.636719 881.347656 C 623.136719 878.027344 631.488281 865.757812 677.851562 834.015625 C 688.394531 826.800781 711.21875 824.679688 729.558594 822.984375 C 749.484375 821.140625 761.125 819.835938 768.613281 814.589844 C 781.8125 805.351562 862.457031 723.871094 875.328125 649.195312 C 886.054688 586.96875 907.765625 563.210938 940.628906 527.257812 L 947.175781 520.070312 C 956.269531 510.070312 965.125 502.855469 972.9375 496.480469 C 995.355469 478.210938 1009.75 464.046875 1005.324219 425.808594 C 1006.917969 414.804688 1006.105469 401.246094 1002.121094 383.328125 "/>
</clipPath>
<linearGradient id="linear0" gradientUnits="userSpaceOnUse" x1="0.0279014" y1="0" x2="1.011619" y2="0" gradientTransform="matrix(0.000000000000062568,1022.386909,-1021.815259,0.000000000000062603,503.32608,8.74424)">
<stop offset="0" style="stop-color:rgb(89.7995%,91.799927%,3.09906%);stop-opacity:1;"/>
<stop offset="0.00390625" style="stop-color:rgb(88.48877%,91.413879%,3.483582%);stop-opacity:1;"/>
<stop offset="0.0078125" style="stop-color:rgb(87.179565%,91.027832%,3.869629%);stop-opacity:1;"/>
<stop offset="0.0117187" style="stop-color:rgb(85.810852%,90.637207%,4.460144%);stop-opacity:1;"/>
<stop offset="0.015625" style="stop-color:rgb(84.443665%,90.246582%,5.050659%);stop-opacity:1;"/>
<stop offset="0.0195312" style="stop-color:rgb(82.971191%,89.805603%,5.491638%);stop-opacity:1;"/>
<stop offset="0.0234375" style="stop-color:rgb(81.500244%,89.36615%,5.932617%);stop-opacity:1;"/>
<stop offset="0.0273438" style="stop-color:rgb(80.128479%,88.975525%,6.323242%);stop-opacity:1;"/>
<stop offset="0.03125" style="stop-color:rgb(78.756714%,88.5849%,6.713867%);stop-opacity:1;"/>
<stop offset="0.0351562" style="stop-color:rgb(77.633667%,88.194275%,7.102966%);stop-opacity:1;"/>
<stop offset="0.0390625" style="stop-color:rgb(76.512146%,87.80365%,7.493591%);stop-opacity:1;"/>
<stop offset="0.0429688" style="stop-color:rgb(75.140381%,87.463379%,7.833862%);stop-opacity:1;"/>
<stop offset="0.046875" style="stop-color:rgb(73.770142%,87.123108%,8.175659%);stop-opacity:1;"/>
<stop offset="0.0507812" style="stop-color:rgb(72.642517%,86.732483%,8.566284%);stop-opacity:1;"/>
<stop offset="0.0546875" style="stop-color:rgb(71.516418%,86.341858%,8.956909%);stop-opacity:1;"/>
<stop offset="0.0585937" style="stop-color:rgb(70.350647%,85.951233%,9.347534%);stop-opacity:1;"/>
<stop offset="0.0625" style="stop-color:rgb(69.184875%,85.560608%,9.738159%);stop-opacity:1;"/>
<stop offset="0.0664062" style="stop-color:rgb(67.912292%,85.319519%,10.177612%);stop-opacity:1;"/>
<stop offset="0.0703125" style="stop-color:rgb(66.641235%,85.079956%,10.618591%);stop-opacity:1;"/>
<stop offset="0.0742188" style="stop-color:rgb(65.46936%,84.689331%,11.009216%);stop-opacity:1;"/>
<stop offset="0.078125" style="stop-color:rgb(64.299011%,84.298706%,11.399841%);stop-opacity:1;"/>
<stop offset="0.0820312" style="stop-color:rgb(63.174438%,83.908081%,11.790466%);stop-opacity:1;"/>
<stop offset="0.0859375" style="stop-color:rgb(62.051392%,83.517456%,12.181091%);stop-opacity:1;"/>
<stop offset="0.0898437" style="stop-color:rgb(60.881042%,83.126831%,12.32605%);stop-opacity:1;"/>
<stop offset="0.09375" style="stop-color:rgb(59.712219%,82.736206%,12.471008%);stop-opacity:1;"/>
<stop offset="0.0976562" style="stop-color:rgb(58.583069%,82.566833%,12.857056%);stop-opacity:1;"/>
<stop offset="0.101562" style="stop-color:rgb(57.455444%,82.398987%,13.243103%);stop-opacity:1;"/>
<stop offset="0.105469" style="stop-color:rgb(56.340027%,81.987%,13.682556%);stop-opacity:1;"/>
<stop offset="0.109375" style="stop-color:rgb(55.226135%,81.575012%,14.123535%);stop-opacity:1;"/>
<stop offset="0.113281" style="stop-color:rgb(54.05426%,81.184387%,14.511108%);stop-opacity:1;"/>
<stop offset="0.117187" style="stop-color:rgb(52.883911%,80.793762%,14.898682%);stop-opacity:1;"/>
<stop offset="0.121094" style="stop-color:rgb(51.954651%,80.595398%,15.092468%);stop-opacity:1;"/>
<stop offset="0.125" style="stop-color:rgb(51.026917%,80.39856%,15.286255%);stop-opacity:1;"/>
<stop offset="0.128906" style="stop-color:rgb(50.045776%,80.015564%,15.675354%);stop-opacity:1;"/>
<stop offset="0.132812" style="stop-color:rgb(49.064636%,79.632568%,16.065979%);stop-opacity:1;"/>
<stop offset="0.136719" style="stop-color:rgb(47.952271%,79.415894%,16.456604%);stop-opacity:1;"/>
<stop offset="0.140625" style="stop-color:rgb(46.841431%,79.199219%,16.847229%);stop-opacity:1;"/>
<stop offset="0.144531" style="stop-color:rgb(45.739746%,78.78418%,17.08374%);stop-opacity:1;"/>
<stop offset="0.148438" style="stop-color:rgb(44.639587%,78.369141%,17.321777%);stop-opacity:1;"/>
<stop offset="0.152344" style="stop-color:rgb(43.659973%,77.983093%,17.6651%);stop-opacity:1;"/>
<stop offset="0.15625" style="stop-color:rgb(42.680359%,77.598572%,18.009949%);stop-opacity:1;"/>
<stop offset="0.160156" style="stop-color:rgb(41.752625%,77.452087%,18.203735%);stop-opacity:1;"/>
<stop offset="0.164062" style="stop-color:rgb(40.82489%,77.305603%,18.399048%);stop-opacity:1;"/>
<stop offset="0.167969" style="stop-color:rgb(39.852905%,77.102661%,18.785095%);stop-opacity:1;"/>
<stop offset="0.171875" style="stop-color:rgb(38.88092%,76.899719%,19.171143%);stop-opacity:1;"/>
<stop offset="0.175781" style="stop-color:rgb(38.130188%,76.522827%,19.384766%);stop-opacity:1;"/>
<stop offset="0.179688" style="stop-color:rgb(37.380981%,76.145935%,19.599915%);stop-opacity:1;"/>
<stop offset="0.183594" style="stop-color:rgb(36.404419%,75.9552%,19.966125%);stop-opacity:1;"/>
<stop offset="0.1875" style="stop-color:rgb(35.429382%,75.764465%,20.333862%);stop-opacity:1;"/>
<stop offset="0.191406" style="stop-color:rgb(34.54895%,75.523376%,20.573425%);stop-opacity:1;"/>
<stop offset="0.195313" style="stop-color:rgb(33.668518%,75.283813%,20.814514%);stop-opacity:1;"/>
<stop offset="0.199219" style="stop-color:rgb(32.936096%,74.893188%,21.006775%);stop-opacity:1;"/>
<stop offset="0.203125" style="stop-color:rgb(32.2052%,74.502563%,21.199036%);stop-opacity:1;"/>
<stop offset="0.207031" style="stop-color:rgb(31.42395%,74.311829%,21.588135%);stop-opacity:1;"/>
<stop offset="0.210937" style="stop-color:rgb(30.644226%,74.121094%,21.977234%);stop-opacity:1;"/>
<stop offset="0.214844" style="stop-color:rgb(29.663086%,73.910522%,22.166443%);stop-opacity:1;"/>
<stop offset="0.21875" style="stop-color:rgb(28.681946%,73.699951%,22.357178%);stop-opacity:1;"/>
<stop offset="0.222656" style="stop-color:rgb(27.94342%,73.498535%,22.528076%);stop-opacity:1;"/>
<stop offset="0.226562" style="stop-color:rgb(27.204895%,73.298645%,22.698975%);stop-opacity:1;"/>
<stop offset="0.230469" style="stop-color:rgb(26.341248%,72.898865%,22.909546%);stop-opacity:1;"/>
<stop offset="0.234375" style="stop-color:rgb(25.479126%,72.499084%,23.120117%);stop-opacity:1;"/>
<stop offset="0.238281" style="stop-color:rgb(24.887085%,72.348022%,23.509216%);stop-opacity:1;"/>
<stop offset="0.242188" style="stop-color:rgb(24.295044%,72.198486%,23.899841%);stop-opacity:1;"/>
<stop offset="0.246094" style="stop-color:rgb(23.513794%,72.007751%,24.090576%);stop-opacity:1;"/>
<stop offset="0.25" style="stop-color:rgb(22.73407%,71.817017%,24.281311%);stop-opacity:1;"/>
<stop offset="0.253906" style="stop-color:rgb(22.003174%,71.626282%,24.472046%);stop-opacity:1;"/>
<stop offset="0.257812" style="stop-color:rgb(21.272278%,71.435547%,24.662781%);stop-opacity:1;"/>
<stop offset="0.261719" style="stop-color:rgb(20.663452%,71.244812%,24.880981%);stop-opacity:1;"/>
<stop offset="0.265625" style="stop-color:rgb(20.054626%,71.054077%,25.099182%);stop-opacity:1;"/>
<stop offset="0.269531" style="stop-color:rgb(19.213867%,70.826721%,25.311279%);stop-opacity:1;"/>
<stop offset="0.273438" style="stop-color:rgb(18.373108%,70.599365%,25.524902%);stop-opacity:1;"/>
<stop offset="0.277344" style="stop-color:rgb(17.832947%,70.399475%,25.715637%);stop-opacity:1;"/>
<stop offset="0.28125" style="stop-color:rgb(17.292786%,70.199585%,25.906372%);stop-opacity:1;"/>
<stop offset="0.285156" style="stop-color:rgb(16.708374%,70.005798%,26.101685%);stop-opacity:1;"/>
<stop offset="0.289062" style="stop-color:rgb(16.123962%,69.812012%,26.298523%);stop-opacity:1;"/>
<stop offset="0.292969" style="stop-color:rgb(15.727234%,69.621277%,26.483154%);stop-opacity:1;"/>
<stop offset="0.296875" style="stop-color:rgb(15.330505%,69.430542%,26.667786%);stop-opacity:1;"/>
<stop offset="0.300781" style="stop-color:rgb(14.73999%,69.413757%,26.858521%);stop-opacity:1;"/>
<stop offset="0.304688" style="stop-color:rgb(14.149475%,69.398499%,27.049255%);stop-opacity:1;"/>
<stop offset="0.308594" style="stop-color:rgb(13.55896%,69.198608%,27.23999%);stop-opacity:1;"/>
<stop offset="0.3125" style="stop-color:rgb(12.968445%,68.998718%,27.430725%);stop-opacity:1;"/>
<stop offset="0.316406" style="stop-color:rgb(12.37793%,68.798828%,27.615356%);stop-opacity:1;"/>
<stop offset="0.320312" style="stop-color:rgb(11.787415%,68.598938%,27.799988%);stop-opacity:1;"/>
<stop offset="0.324219" style="stop-color:rgb(11.199951%,68.4021%,27.799988%);stop-opacity:1;"/>
<stop offset="0.328125" style="stop-color:rgb(10.612488%,68.206787%,27.799988%);stop-opacity:1;"/>
<stop offset="0.332031" style="stop-color:rgb(10.218811%,68.016052%,27.999878%);stop-opacity:1;"/>
<stop offset="0.335937" style="stop-color:rgb(9.825134%,67.825317%,28.199768%);stop-opacity:1;"/>
<stop offset="0.339844" style="stop-color:rgb(9.255981%,67.811584%,28.399658%);stop-opacity:1;"/>
<stop offset="0.34375" style="stop-color:rgb(8.688354%,67.799377%,28.599548%);stop-opacity:1;"/>
<stop offset="0.347656" style="stop-color:rgb(8.274841%,67.648315%,28.767395%);stop-opacity:1;"/>
<stop offset="0.351562" style="stop-color:rgb(7.862854%,67.498779%,28.935242%);stop-opacity:1;"/>
<stop offset="0.355469" style="stop-color:rgb(7.472229%,67.298889%,28.974915%);stop-opacity:1;"/>
<stop offset="0.359375" style="stop-color:rgb(7.081604%,67.098999%,29.016113%);stop-opacity:1;"/>
<stop offset="0.363281" style="stop-color:rgb(6.690979%,67.098999%,29.206848%);stop-opacity:1;"/>
<stop offset="0.367188" style="stop-color:rgb(6.300354%,67.098999%,29.399109%);stop-opacity:1;"/>
<stop offset="0.371094" style="stop-color:rgb(5.909729%,66.899109%,29.588318%);stop-opacity:1;"/>
<stop offset="0.375" style="stop-color:rgb(5.52063%,66.699219%,29.779053%);stop-opacity:1;"/>
<stop offset="0.378906" style="stop-color:rgb(5.130005%,66.699219%,29.788208%);stop-opacity:1;"/>
<stop offset="0.382812" style="stop-color:rgb(4.73938%,66.699219%,29.798889%);stop-opacity:1;"/>
<stop offset="0.386719" style="stop-color:rgb(4.348755%,66.499329%,29.969788%);stop-opacity:1;"/>
<stop offset="0.390625" style="stop-color:rgb(3.95813%,66.299438%,30.140686%);stop-opacity:1;"/>
<stop offset="0.394531" style="stop-color:rgb(3.717041%,66.287231%,30.169678%);stop-opacity:1;"/>
<stop offset="0.398438" style="stop-color:rgb(3.477478%,66.27655%,30.198669%);stop-opacity:1;"/>
<stop offset="0.402344" style="stop-color:rgb(3.088379%,66.087341%,30.39856%);stop-opacity:1;"/>
<stop offset="0.40625" style="stop-color:rgb(2.69928%,65.899658%,30.599976%);stop-opacity:1;"/>
<stop offset="0.421875" style="stop-color:rgb(2.548218%,65.899658%,30.599976%);stop-opacity:1;"/>
<stop offset="0.429687" style="stop-color:rgb(2.212524%,65.711975%,30.599976%);stop-opacity:1;"/>
<stop offset="0.4375" style="stop-color:rgb(1.831055%,65.512085%,30.781555%);stop-opacity:1;"/>
<stop offset="0.441406" style="stop-color:rgb(1.41449%,65.499878%,30.981445%);stop-opacity:1;"/>
<stop offset="0.445312" style="stop-color:rgb(1.194763%,65.499878%,30.999756%);stop-opacity:1;"/>
<stop offset="0.453125" style="stop-color:rgb(0.999451%,65.499878%,30.999756%);stop-opacity:1;"/>
<stop offset="0.460938" style="stop-color:rgb(0.704956%,65.402222%,31.095886%);stop-opacity:1;"/>
<stop offset="0.46875" style="stop-color:rgb(0.509644%,65.208435%,31.289673%);stop-opacity:1;"/>
<stop offset="0.484375" style="stop-color:rgb(0.308228%,65.104675%,31.393433%);stop-opacity:1;"/>
<stop offset="0.5" style="stop-color:rgb(0.10376%,65.098572%,31.399536%);stop-opacity:1;"/>
<stop offset="0.515625" style="stop-color:rgb(0.184631%,65.098572%,31.399536%);stop-opacity:1;"/>
<stop offset="0.523438" style="stop-color:rgb(0.387573%,65.098572%,31.394958%);stop-opacity:1;"/>
<stop offset="0.53125" style="stop-color:rgb(0.604248%,65.098572%,31.195068%);stop-opacity:1;"/>
<stop offset="0.539062" style="stop-color:rgb(0.994873%,65.293884%,30.999756%);stop-opacity:1;"/>
<stop offset="0.546875" style="stop-color:rgb(1.385498%,65.493774%,30.999756%);stop-opacity:1;"/>
<stop offset="0.554688" style="stop-color:rgb(1.774597%,65.499878%,30.999756%);stop-opacity:1;"/>
<stop offset="0.558594" style="stop-color:rgb(2.183533%,65.699768%,30.799866%);stop-opacity:1;"/>
<stop offset="0.5625" style="stop-color:rgb(2.398682%,65.899658%,30.599976%);stop-opacity:1;"/>
<stop offset="0.566406" style="stop-color:rgb(2.75116%,65.901184%,30.39856%);stop-opacity:1;"/>
<stop offset="0.570312" style="stop-color:rgb(3.103638%,65.904236%,30.198669%);stop-opacity:1;"/>
<stop offset="0.574219" style="stop-color:rgb(3.300476%,66.101074%,30.198669%);stop-opacity:1;"/>
<stop offset="0.578125" style="stop-color:rgb(3.49884%,66.299438%,30.198669%);stop-opacity:1;"/>
<stop offset="0.582031" style="stop-color:rgb(3.881836%,66.299438%,30.015564%);stop-opacity:1;"/>
<stop offset="0.585937" style="stop-color:rgb(4.266357%,66.299438%,29.832458%);stop-opacity:1;"/>
<stop offset="0.589844" style="stop-color:rgb(4.656982%,66.499329%,29.815674%);stop-opacity:1;"/>
<stop offset="0.59375" style="stop-color:rgb(5.047607%,66.699219%,29.798889%);stop-opacity:1;"/>
<stop offset="0.597656" style="stop-color:rgb(5.273438%,66.699219%,29.798889%);stop-opacity:1;"/>
<stop offset="0.601562" style="stop-color:rgb(5.499268%,66.699219%,29.798889%);stop-opacity:1;"/>
<stop offset="0.605469" style="stop-color:rgb(5.908203%,66.899109%,29.594421%);stop-opacity:1;"/>
<stop offset="0.609375" style="stop-color:rgb(6.318665%,67.098999%,29.389954%);stop-opacity:1;"/>
<stop offset="0.613281" style="stop-color:rgb(6.904602%,67.294312%,29.194641%);stop-opacity:1;"/>
<stop offset="0.617188" style="stop-color:rgb(7.49054%,67.489624%,28.999329%);stop-opacity:1;"/>
<stop offset="0.621094" style="stop-color:rgb(7.830811%,67.494202%,28.813171%);stop-opacity:1;"/>
<stop offset="0.625" style="stop-color:rgb(8.171082%,67.498779%,28.627014%);stop-opacity:1;"/>
<stop offset="0.628906" style="stop-color:rgb(8.561707%,67.648315%,28.613281%);stop-opacity:1;"/>
<stop offset="0.632812" style="stop-color:rgb(8.952332%,67.799377%,28.599548%);stop-opacity:1;"/>
<stop offset="0.636719" style="stop-color:rgb(9.542847%,67.965698%,28.399658%);stop-opacity:1;"/>
<stop offset="0.640625" style="stop-color:rgb(10.133362%,68.133545%,28.199768%);stop-opacity:1;"/>
<stop offset="0.644531" style="stop-color:rgb(10.572815%,68.173218%,27.999878%);stop-opacity:1;"/>
<stop offset="0.648438" style="stop-color:rgb(11.013794%,68.214417%,27.799988%);stop-opacity:1;"/>
<stop offset="0.652344" style="stop-color:rgb(11.602783%,68.406677%,27.650452%);stop-opacity:1;"/>
<stop offset="0.65625" style="stop-color:rgb(12.191772%,68.598938%,27.502441%);stop-opacity:1;"/>
<stop offset="0.660156" style="stop-color:rgb(12.722778%,68.798828%,27.311707%);stop-opacity:1;"/>
<stop offset="0.664062" style="stop-color:rgb(13.253784%,68.998718%,27.122498%);stop-opacity:1;"/>
<stop offset="0.667969" style="stop-color:rgb(13.833618%,69.198608%,26.931763%);stop-opacity:1;"/>
<stop offset="0.671875" style="stop-color:rgb(14.414978%,69.398499%,26.741028%);stop-opacity:1;"/>
<stop offset="0.675781" style="stop-color:rgb(14.996338%,69.567871%,26.550293%);stop-opacity:1;"/>
<stop offset="0.679688" style="stop-color:rgb(15.577698%,69.73877%,26.359558%);stop-opacity:1;"/>
<stop offset="0.683594" style="stop-color:rgb(16.358948%,69.927979%,26.168823%);stop-opacity:1;"/>
<stop offset="0.6875" style="stop-color:rgb(17.140198%,70.118713%,25.979614%);stop-opacity:1;"/>
<stop offset="0.691406" style="stop-color:rgb(17.770386%,70.359802%,25.738525%);stop-opacity:1;"/>
<stop offset="0.695313" style="stop-color:rgb(18.4021%,70.600891%,25.498962%);stop-opacity:1;"/>
<stop offset="0.699219" style="stop-color:rgb(19.181824%,70.799255%,25.308228%);stop-opacity:1;"/>
<stop offset="0.703125" style="stop-color:rgb(19.963074%,70.999146%,25.117493%);stop-opacity:1;"/>
<stop offset="0.707031" style="stop-color:rgb(20.544434%,71.199036%,24.926758%);stop-opacity:1;"/>
<stop offset="0.710938" style="stop-color:rgb(21.125793%,71.398926%,24.736023%);stop-opacity:1;"/>
<stop offset="0.714844" style="stop-color:rgb(21.862793%,71.598816%,24.545288%);stop-opacity:1;"/>
<stop offset="0.71875" style="stop-color:rgb(22.601318%,71.798706%,24.354553%);stop-opacity:1;"/>
<stop offset="0.722656" style="stop-color:rgb(23.374939%,71.998596%,24.127197%);stop-opacity:1;"/>
<stop offset="0.726563" style="stop-color:rgb(24.150085%,72.198486%,23.899841%);stop-opacity:1;"/>
<stop offset="0.730469" style="stop-color:rgb(25.027466%,72.547913%,23.498535%);stop-opacity:1;"/>
<stop offset="0.734375" style="stop-color:rgb(25.906372%,72.898865%,23.098755%);stop-opacity:1;"/>
<stop offset="0.738281" style="stop-color:rgb(26.489258%,73.092651%,22.904968%);stop-opacity:1;"/>
<stop offset="0.742188" style="stop-color:rgb(27.073669%,73.286438%,22.711182%);stop-opacity:1;"/>
<stop offset="0.746094" style="stop-color:rgb(27.804565%,73.477173%,22.566223%);stop-opacity:1;"/>
<stop offset="0.75" style="stop-color:rgb(28.535461%,73.667908%,22.422791%);stop-opacity:1;"/>
<stop offset="0.753906" style="stop-color:rgb(29.516602%,73.883057%,22.035217%);stop-opacity:1;"/>
<stop offset="0.757812" style="stop-color:rgb(30.497742%,74.099731%,21.64917%);stop-opacity:1;"/>
<stop offset="0.761719" style="stop-color:rgb(31.278992%,74.464417%,21.458435%);stop-opacity:1;"/>
<stop offset="0.765625" style="stop-color:rgb(32.060242%,74.829102%,21.269226%);stop-opacity:1;"/>
<stop offset="0.769531" style="stop-color:rgb(33.09021%,75.07019%,21.028137%);stop-opacity:1;"/>
<stop offset="0.773438" style="stop-color:rgb(34.121704%,75.311279%,20.787048%);stop-opacity:1;"/>
<stop offset="0.777344" style="stop-color:rgb(34.902954%,75.505066%,20.396423%);stop-opacity:1;"/>
<stop offset="0.78125" style="stop-color:rgb(35.684204%,75.698853%,20.007324%);stop-opacity:1;"/>
<stop offset="0.785156" style="stop-color:rgb(36.618042%,76.0849%,19.816589%);stop-opacity:1;"/>
<stop offset="0.789062" style="stop-color:rgb(37.553406%,76.472473%,19.625854%);stop-opacity:1;"/>
<stop offset="0.792969" style="stop-color:rgb(38.529968%,76.663208%,19.235229%);stop-opacity:1;"/>
<stop offset="0.796875" style="stop-color:rgb(39.508057%,76.853943%,18.844604%);stop-opacity:1;"/>
<stop offset="0.800781" style="stop-color:rgb(40.457153%,77.201843%,18.65387%);stop-opacity:1;"/>
<stop offset="0.804688" style="stop-color:rgb(41.40625%,77.55127%,18.463135%);stop-opacity:1;"/>
<stop offset="0.808594" style="stop-color:rgb(42.337036%,77.732849%,18.07251%);stop-opacity:1;"/>
<stop offset="0.8125" style="stop-color:rgb(43.269348%,77.915955%,17.681885%);stop-opacity:1;"/>
<stop offset="0.816406" style="stop-color:rgb(44.580078%,78.355408%,17.29126%);stop-opacity:1;"/>
<stop offset="0.820312" style="stop-color:rgb(45.892334%,78.796387%,16.902161%);stop-opacity:1;"/>
<stop offset="0.824219" style="stop-color:rgb(46.815491%,78.997803%,16.711426%);stop-opacity:1;"/>
<stop offset="0.828125" style="stop-color:rgb(47.740173%,79.199219%,16.520691%);stop-opacity:1;"/>
<stop offset="0.832031" style="stop-color:rgb(48.709106%,79.579163%,16.130066%);stop-opacity:1;"/>
<stop offset="0.835938" style="stop-color:rgb(49.67804%,79.959106%,15.739441%);stop-opacity:1;"/>
<stop offset="0.839844" style="stop-color:rgb(50.679016%,80.178833%,15.348816%);stop-opacity:1;"/>
<stop offset="0.84375" style="stop-color:rgb(51.679993%,80.39856%,14.958191%);stop-opacity:1;"/>
<stop offset="0.847656" style="stop-color:rgb(52.772522%,80.758667%,14.767456%);stop-opacity:1;"/>
<stop offset="0.851562" style="stop-color:rgb(53.865051%,81.1203%,14.576721%);stop-opacity:1;"/>
<stop offset="0.855469" style="stop-color:rgb(55.184937%,81.561279%,14.135742%);stop-opacity:1;"/>
<stop offset="0.859375" style="stop-color:rgb(56.506348%,82.002258%,13.696289%);stop-opacity:1;"/>
<stop offset="0.863281" style="stop-color:rgb(57.627869%,82.344055%,13.305664%);stop-opacity:1;"/>
<stop offset="0.867188" style="stop-color:rgb(58.750916%,82.687378%,12.915039%);stop-opacity:1;"/>
<stop offset="0.871094" style="stop-color:rgb(59.921265%,83.074951%,12.57019%);stop-opacity:1;"/>
<stop offset="0.875" style="stop-color:rgb(61.09314%,83.46405%,12.225342%);stop-opacity:1;"/>
<stop offset="0.878906" style="stop-color:rgb(62.220764%,83.654785%,11.839294%);stop-opacity:1;"/>
<stop offset="0.882813" style="stop-color:rgb(63.349915%,83.84552%,11.453247%);stop-opacity:1;"/>
<stop offset="0.886719" style="stop-color:rgb(64.51416%,84.236145%,11.062622%);stop-opacity:1;"/>
<stop offset="0.890625" style="stop-color:rgb(65.679932%,84.62677%,10.671997%);stop-opacity:1;"/>
<stop offset="0.894531" style="stop-color:rgb(67.150879%,85.066223%,10.231018%);stop-opacity:1;"/>
<stop offset="0.898438" style="stop-color:rgb(68.623352%,85.507202%,9.791565%);stop-opacity:1;"/>
<stop offset="0.902344" style="stop-color:rgb(69.793701%,85.897827%,9.40094%);stop-opacity:1;"/>
<stop offset="0.90625" style="stop-color:rgb(70.965576%,86.288452%,9.010315%);stop-opacity:1;"/>
<stop offset="0.910156" style="stop-color:rgb(72.090149%,86.679077%,8.61969%);stop-opacity:1;"/>
<stop offset="0.914063" style="stop-color:rgb(73.216248%,87.069702%,8.229065%);stop-opacity:1;"/>
<stop offset="0.917969" style="stop-color:rgb(74.583435%,87.416077%,7.88269%);stop-opacity:1;"/>
<stop offset="0.921875" style="stop-color:rgb(75.952148%,87.762451%,7.536316%);stop-opacity:1;"/>
<stop offset="0.925781" style="stop-color:rgb(77.27356%,88.146973%,7.151794%);stop-opacity:1;"/>
<stop offset="0.929688" style="stop-color:rgb(78.594971%,88.531494%,6.767273%);stop-opacity:1;"/>
<stop offset="0.933594" style="stop-color:rgb(79.966736%,88.922119%,6.376648%);stop-opacity:1;"/>
<stop offset="0.9375" style="stop-color:rgb(81.338501%,89.312744%,5.986023%);stop-opacity:1;"/>
<stop offset="0.941406" style="stop-color:rgb(82.809448%,89.752197%,5.348206%);stop-opacity:1;"/>
<stop offset="0.945312" style="stop-color:rgb(84.281921%,90.193176%,4.710388%);stop-opacity:1;"/>
<stop offset="0.949219" style="stop-color:rgb(85.652161%,90.583801%,4.316711%);stop-opacity:1;"/>
<stop offset="0.953125" style="stop-color:rgb(87.023926%,90.974426%,3.924561%);stop-opacity:1;"/>
<stop offset="0.957031" style="stop-color:rgb(88.345337%,91.365051%,3.533936%);stop-opacity:1;"/>
<stop offset="0.960938" style="stop-color:rgb(89.668274%,91.755676%,3.143311%);stop-opacity:1;"/>
<stop offset="0.964844" style="stop-color:rgb(91.165161%,92.103577%,2.793884%);stop-opacity:1;"/>
<stop offset="0.96875" style="stop-color:rgb(92.663574%,92.451477%,2.445984%);stop-opacity:1;"/>
<stop offset="0.972656" style="stop-color:rgb(94.017029%,93.034363%,1.904297%);stop-opacity:1;"/>
<stop offset="0.976562" style="stop-color:rgb(95.372009%,93.617249%,1.36261%);stop-opacity:1;"/>
<stop offset="0.980469" style="stop-color:rgb(96.884155%,94.056702%,0.880432%);stop-opacity:1;"/>
<stop offset="0.984375" style="stop-color:rgb(98.396301%,94.497681%,0.39978%);stop-opacity:1;"/>
<stop offset="0.988281" style="stop-color:rgb(99.177551%,94.688416%,0.209045%);stop-opacity:1;"/>
<stop offset="0.992188" style="stop-color:rgb(99.960327%,94.87915%,0.0183105%);stop-opacity:1;"/>
<stop offset="1" style="stop-color:rgb(99.980164%,94.888306%,0.00915527%);stop-opacity:1;"/>
</linearGradient>
<clipPath id="clip4">
  <path d="M 336.171875 335 L 859.300781 335 L 859.300781 515 L 336.171875 515 Z M 336.171875 335 "/>
</clipPath>
<clipPath id="clip5">
  <path d="M 401 228.5 L 822 228.5 L 822 623.710938 L 401 623.710938 Z M 401 228.5 "/>
</clipPath>
</defs>
<g id="surface1">
<g clip-path="url(#clip1)" clip-rule="nonzero">
<g clip-path="url(#clip2)" clip-rule="nonzero">
<g clip-path="url(#clip3)" clip-rule="nonzero">
<path style=" stroke:none;fill-rule:nonzero;fill:url(#linear0);" d="M 1007.578125 37.269531 L 0.421875 37.269531 L 0.421875 1043.011719 L 1007.578125 1043.011719 Z M 1007.578125 37.269531 "/>
</g>
</g>
</g>
<g clip-path="url(#clip4)" clip-rule="nonzero">
<path style=" stroke:none;fill-rule:nonzero;fill:rgb(20.388794%,71.369934%,12.159729%);fill-opacity:1;" d="M 700.597656 496.054688 C 732.222656 506.125 791.769531 518.035156 825.234375 514.027344 C 840.230469 512.230469 855.691406 504.625 858.726562 489.308594 C 860.417969 480.804688 858.238281 471.90625 854.207031 464.152344 C 851.332031 458.621094 847.546875 453.578125 843.433594 448.78125 C 841.703125 446.738281 838.285156 448.304688 838.789062 450.894531 C 840.625 460.039062 846.496094 468.621094 847.191406 477.929688 C 847.585938 483.285156 846.332031 489.089844 841.796875 492.632812 C 838.71875 495.046875 834.835938 496.339844 830.957031 497.238281 C 812.171875 501.601562 767.839844 498.246094 748.988281 495.820312 C 701.535156 489.730469 656.015625 474.347656 610.976562 459.453125 C 603.335938 456.929688 599.003906 455.390625 599.003906 455.390625 L 598.375 456.792969 C 598.375 456.792969 602.53125 458.714844 609.84375 461.917969 C 639.414062 474.863281 669.734375 486.214844 700.597656 496.054688 Z M 595.542969 448.6875 C 597.3125 450.921875 593.5 458.785156 590.679688 459.4375 C 589.617188 459.683594 503.46875 432.523438 500.679688 431.84375 C 506.425781 440.714844 511.710938 448.496094 516.464844 456.550781 C 517.078125 457.558594 516.886719 459.695312 516.640625 461.25 C 516.449219 462.394531 515.621094 463.363281 514.488281 463.785156 C 513.316406 464.222656 511.902344 464.617188 511.273438 464.300781 C 503.539062 460.363281 450.148438 422.003906 434.835938 407.273438 C 431.894531 404.4375 346.945312 360.519531 342.246094 356.730469 C 338.121094 353.40625 334.730469 349.003906 336.800781 343.527344 C 338.9375 337.898438 352.9375 335.351562 354.234375 335.417969 C 373.34375 336.289062 399.847656 342.285156 417.347656 351.210938 C 459.09375 372.484375 509.625 392.570312 551.726562 413.28125 C 555.363281 415.066406 558.113281 415.21875 561.804688 413.378906 C 576.09375 406.238281 590.558594 399.398438 605.007812 392.527344 C 609.449219 390.417969 619.84375 393.195312 623 397.40625 C 626.449219 401.984375 599.246094 432.484375 588.527344 444.898438 C 591.28125 446.300781 594.179688 446.96875 595.542969 448.6875 "/>
</g>
<g clip-path="url(#clip5)" clip-rule="nonzero">
<path style=" stroke:none;fill-rule:nonzero;fill:rgb(100%,98.81897%,0%);fill-opacity:1;" d="M 555.390625 406.511719 C 556.535156 407.070312 556.917969 407.082031 556.917969 407.082031 C 556.917969 407.082031 557.242188 407.070312 558.101562 406.632812 C 571.164062 400.105469 584.566406 393.742188 597.519531 387.582031 L 601.441406 385.714844 C 603.566406 384.707031 606.097656 384.1875 608.960938 384.1875 C 615.714844 384.1875 625.207031 387.269531 629.484375 392.964844 C 633.324219 398.074219 631.785156 404.195312 619.976562 419.550781 C 642.371094 419.550781 664.558594 419.550781 685.519531 419.550781 C 684.890625 395.894531 681.023438 372.25 673.804688 349.25 C 630.722656 349.25 583.800781 349.25 541.128906 349.25 C 536.429688 364.199219 533.175781 379.417969 531.296875 394.738281 C 539.320312 398.632812 547.394531 402.585938 555.390625 406.511719 Z M 511.886719 472.027344 C 510.308594 472.027344 508.835938 471.6875 507.527344 471.019531 C 501.835938 468.132812 482.003906 451.941406 464.257812 436.707031 C 439.933594 436.707031 412.609375 436.707031 401.5625 436.707031 C 402.734375 461.714844 409 493.53125 419.40625 515.078125 C 442.984375 515.078125 484.796875 515.078125 522.675781 515.078125 C 519.285156 503.398438 516.683594 483.515625 514.84375 471.648438 C 513.792969 471.894531 512.8125 472.027344 511.886719 472.027344 Z M 750.050781 488.285156 C 751.796875 488.503906 768.929688 490.222656 770.6875 490.453125 C 781.011719 491.816406 792.410156 491.734375 802.667969 491.734375 C 805.324219 491.734375 807.800781 491.609375 810.226562 491.433594 C 816.65625 474.210938 820.535156 455.828125 821.433594 436.707031 C 800.964844 436.707031 747.394531 436.707031 703.226562 436.707031 C 702.855469 450.621094 701.425781 464.519531 698.949219 478.324219 C 715.824219 482.589844 732.875 486.078125 750.050781 488.285156 Z M 702.011719 504.324219 L 698.0625 503.261719 C 696.59375 502.800781 695.132812 502.308594 693.664062 501.832031 C 693.199219 503.5625 690.542969 513.183594 690.039062 514.914062 C 696.035156 514.914062 715.117188 510.445312 718.765625 507.855469 C 716.097656 506.996094 704.628906 505.15625 702.011719 504.324219 Z M 606.519531 468.839844 C 602.164062 466.933594 598.933594 465.488281 597 464.601562 C 595.746094 465.625 594.277344 466.441406 592.558594 466.835938 C 591.949219 466.988281 591.292969 467.054688 590.652344 467.054688 C 588.691406 467.054688 588.214844 467.042969 530.316406 449.011719 C 532.003906 468.664062 535.859375 496.191406 541.851562 515.078125 C 584.484375 515.078125 630.832031 515.078125 673.082031 515.078125 C 674.226562 511.4375 675.277344 499.707031 676.269531 496.027344 C 652.378906 487.796875 628.996094 478.679688 606.519531 468.839844 Z M 600.707031 442.785156 C 601.128906 443.195312 601.535156 443.617188 601.917969 444.105469 C 602.804688 445.226562 603.621094 446.832031 603.878906 448.984375 C 605.855469 449.667969 609.164062 450.796875 613.589844 452.257812 L 617.796875 453.644531 C 638.652344 460.554688 659.859375 467.574219 681.351562 473.625 C 683.558594 461.425781 684.933594 449.09375 685.410156 436.707031 C 659.980469 436.707031 632.902344 436.707031 605.921875 436.707031 C 604.289062 438.644531 602.542969 440.671875 600.707031 442.785156 Z M 429.511719 412.957031 C 427.0625 411.335938 415.90625 405.269531 403.757812 398.757812 C 402.640625 405.570312 401.890625 412.507812 401.5625 419.550781 C 410.171875 419.550781 422.15625 419.550781 436.648438 419.550781 C 433.828125 417.015625 431.390625 414.769531 429.511719 412.957031 Z M 511.902344 385.304688 C 512.882812 385.785156 513.875 386.273438 514.871094 386.75 C 516.804688 374.105469 519.570312 361.566406 523.207031 349.25 C 490.148438 349.25 452.53125 349.25 430.5625 349.25 C 454.914062 361.539062 487.78125 373.601562 511.902344 385.304688 Z M 583.394531 228.527344 C 520.972656 235.734375 459.449219 282.75 428.84375 332.09375 C 452.804688 332.09375 493.160156 332.09375 528.886719 332.09375 C 540.953125 299.089844 559.230469 255.890625 583.394531 228.527344 Z M 794.152344 332.09375 C 763.550781 282.75 693.964844 235.734375 631.542969 228.527344 C 655.691406 255.890625 673.96875 299.089844 686.050781 332.09375 C 722.0625 332.09375 770.550781 332.09375 794.152344 332.09375 Z M 631.625 623.699219 C 694.003906 616.476562 763.5625 573.496094 794.152344 524.179688 C 770.332031 524.179688 722.117188 532.246094 686.621094 532.246094 C 683.585938 540.628906 680.113281 548.925781 676.214844 557.101562 C 664.71875 581.183594 649.5625 603.558594 631.625 623.699219 Z M 428.84375 532.246094 C 459.4375 581.5625 520.917969 616.476562 583.3125 623.699219 C 565.375 603.558594 550.214844 581.183594 538.71875 557.101562 C 534.808594 548.925781 531.351562 540.628906 528.300781 532.246094 C 492.535156 532.246094 452.3125 532.246094 428.84375 532.246094 Z M 803.59375 349.25 C 779.90625 349.25 729.824219 349.25 691.714844 349.25 C 698.484375 372.144531 702.328125 395.773438 703.15625 419.550781 C 748.839844 419.550781 802.925781 419.550781 821.433594 419.550781 C 820.265625 394.546875 813.984375 370.808594 803.59375 349.25 Z M 607.460938 623.710938 C 633.777344 597.015625 653.796875 565.769531 666.980469 532.246094 C 628.203125 532.246094 586.59375 532.246094 547.941406 532.246094 C 561.125 565.769531 581.148438 597.015625 607.460938 623.710938 Z M 607.460938 228.515625 C 628.886719 250.167969 646.550781 286.90625 659.75 313.957031 C 662.648438 319.9375 665.304688 325.988281 667.71875 332.09375 C 628.625 332.09375 586.445312 332.09375 547.203125 332.09375 C 549.617188 325.988281 552.273438 319.9375 555.1875 313.957031 C 568.371094 286.90625 586.050781 250.167969 607.460938 228.515625 "/>
</g>
</g>
</svg>
